<svg id="Layer_1" height="512" viewBox="0 0 128 128" width="512" xmlns="http://www.w3.org/2000/svg" data-name="Layer 1"><path d="m91.683 65.292c-1.034-.408-2.171-.8-3.407-1.173a32.145 32.145 0 0 0 8.012-21.253 1.75 1.75 0 0 0 -1.75-1.75h-61.076a1.745 1.745 0 0 0 -.684.139 17.775 17.775 0 0 1 -.724-7.218c.767-9.157 5.081-15.2 12.819-17.945a36.022 36.022 0 0 1 11.977-1.842c5.441 0 10.362 2.2 13.24 5.893a14.854 14.854 0 0 1 -.162 2c-.425 3.517-1.217 10.063 5.728 13.891a1.754 1.754 0 0 0 1.814-.075 11.484 11.484 0 0 0 4.2-13.7c-3.157-10.639-12.896-17.509-24.82-17.509a45.57 45.57 0 0 0 -15.165 2.391c-11.254 3.993-18.048 13.259-19.129 26.103-.881 10.569 3.515 18.969 13.044 24.979a32.369 32.369 0 0 0 23.65 16.577v33.812a13.76 13.76 0 0 0 -9 12.887 1.75 1.75 0 0 0 1.75 1.751h24a1.75 1.75 0 0 0 1.75-1.75 13.76 13.76 0 0 0 -9-12.887v-5.125c18.912-1.637 33.429-9.141 36.3-18.853.876-2.973 2.502-13.155-13.367-19.343zm-65.639-31.756c.956-11.388 6.929-19.591 16.808-23.096a42.107 42.107 0 0 1 14-2.19c10.354 0 18.786 5.905 21.481 15.045.01.033.021.065.032.1a8.078 8.078 0 0 1 -1.983 8.976c-3.837-2.7-3.363-6.613-2.978-9.807a7.9 7.9 0 0 0 -.087-3.865 1.751 1.751 0 0 0 -.207-.365c-3.5-4.747-9.581-7.581-16.259-7.581a39.511 39.511 0 0 0 -13.151 2.038c-9.153 3.254-14.246 10.3-15.139 20.953-.447 5.371.693 9.784 3.45 13.488a32.022 32.022 0 0 0 .989 4.649c-5.285-4.852-7.577-10.897-6.956-18.345zm9.221 11.079h57.47a28.789 28.789 0 0 1 -57.471 0zm38.835 75.135h-20.2a10.251 10.251 0 0 1 20.2 0zm-10.1-12c-.422 0-.838.026-1.25.063v-32.691c.415.016.831.032 1.25.032s.835-.016 1.25-.032v32.692c-.412-.038-.828-.064-1.25-.064zm4.75-32.95a32.026 32.026 0 0 0 10.15-3.3 66.378 66.378 0 0 1 9.3 2.633c5.654 2.208 8.233 4.9 7.665 8.006-1.531 8.348-18.714 15.045-27.115 17.522zm32.941 8.843c-1.394 4.719-6.711 9-14.274 12.041 5.825-3.334 10.927-7.676 11.883-12.918.627-3.43-.569-8.277-9.835-11.9a54.525 54.525 0 0 0 -6.4-1.971q1.247-.916 2.4-1.946a47.621 47.621 0 0 1 4.933 1.6c13.102 5.108 11.957 12.846 11.293 15.095z"/></svg>